[debug] Command-line config: ['-f', 'bestvideo[ext=mp4][vcodec^=avc]+bestaudio[ext=m4a]/bestvideo+bestaudio', '--skip-unavailable-fragments', '--merge-output-format', 'mp4', '--download-sections', '*00:00:15.05-00:00:38.32', 'https://www.youtube.com/watch?v=zx4W0Vuus-I', '--output', '/home/face/Desktop/hb/cv_new/videos/zx4W0Vuus-I_0.mp4', '--external-downloader', 'aria2c', '--external-downloader-args', 'aria2c:-x 16 -k 1M', '--verbose']
[debug] Encodings: locale UTF-8, fs utf-8, pref UTF-8, out utf-8 (No ANSI), error utf-8 (No ANSI), screen utf-8 (No ANSI)
[debug] yt-dlp version stable@2023.07.06 [b532a3481] (pip)
[debug] Python 3.10.12 (CPython x86_64 64bit) - Linux-6.2.0-32-generic-x86_64-with-glibc2.35 (OpenSSL 3.0.2 15 Mar 2022, glibc 2.35)
[debug] exe versions: ffmpeg 4.4.2 (setts), ffprobe 4.4.2
[debug] Optional libraries: Cryptodome-3.18.0, brotli-1.0.9, certifi-2020.06.20, mutagen-1.47.0, secretstorage-3.3.1, sqlite3-2.6.0, websockets-11.0.3
[debug] Proxy map: {}
[debug] Loaded 1855 extractors
[youtube] Extracting URL: https://www.youtube.com/watch?v=zx4W0Vuus-I
[youtube] zx4W0Vuus-I: Downloading webpage
[youtube] zx4W0Vuus-I: Downloading ios player API JSON
[youtube] zx4W0Vuus-I: Downloading android player API JSON
[youtube] zx4W0Vuus-I: Downloading m3u8 information
[youtube] zx4W0Vuus-I: Downloading MPD manifest
[debug] Sort order given by extractor: quality, res, fps, hdr:12, source, vcodec:vp9.2, channels, acodec, lang, proto
[debug] Formats sorted by: hasvid, ie_pref, quality, res, fps, hdr:12(7), source, vcodec:vp9.2(10), channels, acodec, lang, proto, size, br, asr, vext, aext, hasaud, id
[info] zx4W0Vuus-I: Downloading 1 format(s): 231+140
[info] zx4W0Vuus-I: Downloading 1 time ranges: 15.1-38.3
[debug] Invoking ffmpeg downloader on "https://manifest.googlevideo.com/api/manifest/hls_playlist/expire/1695457888/ei/AE4OZefVHL6u2roP-pye6Aw/ip/203.255.251.57/id/cf1e16d15baeb3e2/itag/231/source/youtube/requiressl/yes/ratebypass/yes/otfp/1/pfa/1/sgovp/cnr%3D11%3Bitag%3D135%3Blmt%3D1603754478294370%3Botf%3D1%3Bsource%3Dyt_otf/hls_chunk_host/rr4---sn-3u-bh2z6.googlevideo.com/mh/Pw/mm/31,26/mn/sn-3u-bh2z6,sn-oguelnl7/ms/au,onr/mv/m/mvi/4/pl/22/initcwndbps/15757500/vprv/1/playlist_type/DVR/dover/13/mt/1695435925/fvip/3/short_key/1/keepalive/yes/fexp/24007246/beids/24350017/sparams/expire,ei,ip,id,itag,source,requiressl,ratebypass,otfp,pfa,sgovp,vprv,playlist_type/sig/AOq0QJ8wRAIgEKfJJ3yKU6-KdCQLaG8BJQsKWUYDN6aDbT0z1ylY8tYCIBQE_f_j4SSxVEaeS4A0WQ8U0axHle_m_luk00KJ1Vr9/lsparams/hls_chunk_host,mh,mm,mn,ms,mv,mvi,pl,initcwndbps/lsig/AG3C_xAwRQIhAL5qXfPQknhz8MGG1mh10SKvYGJHKka30kE9xi55F1mXAiAIKRHAyauBgR5Pfmi1XHgAYfB1B23d5HX4MEY1OJ8xrQ%3D%3D/playlist/index.m3u8", "https://rr4---sn-3u-bh2z6.googlevideo.com/videoplayback?expire=1695457888&ei=AE4OZefVHL6u2roP-pye6Aw&ip=203.255.251.57&id=o-AKfc30sz_T297GkulxkElcizTHyjib-0wcwoiQCTMUo-&itag=140&source=youtube&requiressl=yes&mh=Pw&mm=31%2C26&mn=sn-3u-bh2z6%2Csn-oguelnl7&ms=au%2Conr&mv=m&mvi=4&pl=22&initcwndbps=15757500&vprv=1&svpuc=1&mime=audio%2Fmp4&gir=yes&clen=1323160&dur=81.711&lmt=1595878881531201&mt=1695435925&fvip=3&keepalive=yes&fexp=24007246&beids=24350017&c=IOS&txp=1211222&sparams=expire%2Cei%2Cip%2Cid%2Citag%2Csource%2Crequiressl%2Cvprv%2Csvpuc%2Cmime%2Cgir%2Cclen%2Cdur%2Clmt&sig=AOq0QJ8wRgIhAI02rdmcPqFifmlXrULwV4f92kRyCFcZXGjRJKtMfZXLAiEA6S0BELywz6QbKBnX25sZu8nTGAgVZzDNoau2sx1F1p8%3D&lsparams=mh%2Cmm%2Cmn%2Cms%2Cmv%2Cmvi%2Cpl%2Cinitcwndbps&lsig=AG3C_xAwRQIgAr_UnAYo4onHvYBYJbXXNzaFAe5yensBHLGycRzwwMoCIQD1_M33ZiiavrO0tOJsHhi8Wu1EDxuJgyabjtn2wprSdQ%3D%3D"
[download] Destination: /home/face/Desktop/hb/cv_new/videos/zx4W0Vuus-I_0.mp4
[debug] ffmpeg command line: ffmpeg -y -loglevel verbose -headers 'User-Agent: Mozilla/5.0 (Windows NT 10.0; Win64; x64) AppleWebKit/537.36 (KHTML, like Gecko) Chrome/94.0.4606.85 Safari/537.36
Accept: text/html,application/xhtml+xml,application/xml;q=0.9,*/*;q=0.8
Accept-Language: en-us,en;q=0.5
Sec-Fetch-Mode: navigate
' -ss 15.05 -t 23.27 -i https://manifest.googlevideo.com/api/manifest/hls_playlist/expire/1695457888/ei/AE4OZefVHL6u2roP-pye6Aw/ip/203.255.251.57/id/cf1e16d15baeb3e2/itag/231/source/youtube/requiressl/yes/ratebypass/yes/otfp/1/pfa/1/sgovp/cnr%3D11%3Bitag%3D135%3Blmt%3D1603754478294370%3Botf%3D1%3Bsource%3Dyt_otf/hls_chunk_host/rr4---sn-3u-bh2z6.googlevideo.com/mh/Pw/mm/31,26/mn/sn-3u-bh2z6,sn-oguelnl7/ms/au,onr/mv/m/mvi/4/pl/22/initcwndbps/15757500/vprv/1/playlist_type/DVR/dover/13/mt/1695435925/fvip/3/short_key/1/keepalive/yes/fexp/24007246/beids/24350017/sparams/expire,ei,ip,id,itag,source,requiressl,ratebypass,otfp,pfa,sgovp,vprv,playlist_type/sig/AOq0QJ8wRAIgEKfJJ3yKU6-KdCQLaG8BJQsKWUYDN6aDbT0z1ylY8tYCIBQE_f_j4SSxVEaeS4A0WQ8U0axHle_m_luk00KJ1Vr9/lsparams/hls_chunk_host,mh,mm,mn,ms,mv,mvi,pl,initcwndbps/lsig/AG3C_xAwRQIhAL5qXfPQknhz8MGG1mh10SKvYGJHKka30kE9xi55F1mXAiAIKRHAyauBgR5Pfmi1XHgAYfB1B23d5HX4MEY1OJ8xrQ%3D%3D/playlist/index.m3u8 -headers 'User-Agent: Mozilla/5.0 (Windows NT 10.0; Win64; x64) AppleWebKit/537.36 (KHTML, like Gecko) Chrome/94.0.4606.85 Safari/537.36
Accept: text/html,application/xhtml+xml,application/xml;q=0.9,*/*;q=0.8
Accept-Language: en-us,en;q=0.5
Sec-Fetch-Mode: navigate
' -ss 15.05 -t 23.27 -i 'https://rr4---sn-3u-bh2z6.googlevideo.com/videoplayback?expire=1695457888&ei=AE4OZefVHL6u2roP-pye6Aw&ip=203.255.251.57&id=o-AKfc30sz_T297GkulxkElcizTHyjib-0wcwoiQCTMUo-&itag=140&source=youtube&requiressl=yes&mh=Pw&mm=31%2C26&mn=sn-3u-bh2z6%2Csn-oguelnl7&ms=au%2Conr&mv=m&mvi=4&pl=22&initcwndbps=15757500&vprv=1&svpuc=1&mime=audio%2Fmp4&gir=yes&clen=1323160&dur=81.711&lmt=1595878881531201&mt=1695435925&fvip=3&keepalive=yes&fexp=24007246&beids=24350017&c=IOS&txp=1211222&sparams=expire%2Cei%2Cip%2Cid%2Citag%2Csource%2Crequiressl%2Cvprv%2Csvpuc%2Cmime%2Cgir%2Cclen%2Cdur%2Clmt&sig=AOq0QJ8wRgIhAI02rdmcPqFifmlXrULwV4f92kRyCFcZXGjRJKtMfZXLAiEA6S0BELywz6QbKBnX25sZu8nTGAgVZzDNoau2sx1F1p8%3D&lsparams=mh%2Cmm%2Cmn%2Cms%2Cmv%2Cmvi%2Cpl%2Cinitcwndbps&lsig=AG3C_xAwRQIgAr_UnAYo4onHvYBYJbXXNzaFAe5yensBHLGycRzwwMoCIQD1_M33ZiiavrO0tOJsHhi8Wu1EDxuJgyabjtn2wprSdQ%3D%3D' -c copy -map 0:0 -map 1:0 -f mp4 file:/home/face/Desktop/hb/cv_new/videos/zx4W0Vuus-I_0.mp4.part
ffmpeg version 4.4.2-0ubuntu0.22.04.1 Copyright (c) 2000-2021 the FFmpeg developers
  built with gcc 11 (Ubuntu 11.2.0-19ubuntu1)
  configuration: --prefix=/usr --extra-version=0ubuntu0.22.04.1 --toolchain=hardened --libdir=/usr/lib/x86_64-linux-gnu --incdir=/usr/include/x86_64-linux-gnu --arch=amd64 --enable-gpl --disable-stripping --enable-gnutls --enable-ladspa --enable-libaom --enable-libass --enable-libbluray --enable-libbs2b --enable-libcaca --enable-libcdio --enable-libcodec2 --enable-libdav1d --enable-libflite --enable-libfontconfig --enable-libfreetype --enable-libfribidi --enable-libgme --enable-libgsm --enable-libjack --enable-libmp3lame --enable-libmysofa --enable-libopenjpeg --enable-libopenmpt --enable-libopus --enable-libpulse --enable-librabbitmq --enable-librubberband --enable-libshine --enable-libsnappy --enable-libsoxr --enable-libspeex --enable-libsrt --enable-libssh --enable-libtheora --enable-libtwolame --enable-libvidstab --enable-libvorbis --enable-libvpx --enable-libwebp --enable-libx265 --enable-libxml2 --enable-libxvid --enable-libzimg --enable-libzmq --enable-libzvbi --enable-lv2 --enable-omx --enable-openal --enable-opencl --enable-opengl --enable-sdl2 --enable-pocketsphinx --enable-librsvg --enable-libmfx --enable-libdc1394 --enable-libdrm --enable-libiec61883 --enable-chromaprint --enable-frei0r --enable-libx264 --enable-shared
  libavutil      56. 70.100 / 56. 70.100
  libavcodec     58.134.100 / 58.134.100
  libavformat    58. 76.100 / 58. 76.100
  libavdevice    58. 13.100 / 58. 13.100
  libavfilter     7.110.100 /  7.110.100
  libswscale      5.  9.100 /  5.  9.100
  libswresample   3.  9.100 /  3.  9.100
  libpostproc    55.  9.100 / 55.  9.100
[tcp @ 0x563afe07d840] Starting connection attempt to 142.250.207.110 port 443
[tcp @ 0x563afe07d840] Successfully connected to 142.250.207.110 port 443
[hls @ 0x563afe078b40] Skip ('#EXT-X-VERSION:3')
[hls @ 0x563afe078b40] HLS request for url 'https://rr4---sn-3u-bh2z6.googlevideo.com/videoplayback/id/cf1e16d15baeb3e2/itag/231/source/youtube/expire/1695457888/ei/AE4OZefVHL6u2roP-pye6Aw/ip/203.255.251.57/requiressl/yes/ratebypass/yes/otfp/1/pfa/1/sgovp/cnr%3D11%3Bitag%3D135%3Blmt%3D1603754478294370%3Botf%3D1%3Bsource%3Dyt_otf/hls_chunk_host/rr4---sn-3u-bh2z6.googlevideo.com/mh/Pw/mm/31,26/mn/sn-3u-bh2z6,sn-oguelnl7/ms/au,onr/mv/m/mvi/4/pl/22/initcwndbps/15757500/vprv/1/playlist_type/DVR/mt/1695435925/fvip/3/keepalive/yes/fexp/24007246/beids/24350017/sparams/expire,ei,ip,id,itag,source,requiressl,ratebypass,otfp,pfa,sgovp,vprv,playlist_type/sig/AOq0QJ8wRAIgEKfJJ3yKU6-KdCQLaG8BJQsKWUYDN6aDbT0z1ylY8tYCIBQE_f_j4SSxVEaeS4A0WQ8U0axHle_m_luk00KJ1Vr9/lsparams/hls_chunk_host,mh,mm,mn,ms,mv,mvi,pl,initcwndbps/lsig/AG3C_xAwRQIhAL5qXfPQknhz8MGG1mh10SKvYGJHKka30kE9xi55F1mXAiAIKRHAyauBgR5Pfmi1XHgAYfB1B23d5HX4MEY1OJ8xrQ%3D%3D/playlist/index.m3u8/govp/sq%3D1/gosq/0/file/seg.ts', offset 0, playlist 0
[hls @ 0x563afe078b40] Opening 'https://rr4---sn-3u-bh2z6.googlevideo.com/videoplayback/id/cf1e16d15baeb3e2/itag/231/source/youtube/expire/1695457888/ei/AE4OZefVHL6u2roP-pye6Aw/ip/203.255.251.57/requiressl/yes/ratebypass/yes/otfp/1/pfa/1/sgovp/cnr%3D11%3Bitag%3D135%3Blmt%3D1603754478294370%3Botf%3D1%3Bsource%3Dyt_otf/hls_chunk_host/rr4---sn-3u-bh2z6.googlevideo.com/mh/Pw/mm/31,26/mn/sn-3u-bh2z6,sn-oguelnl7/ms/au,onr/mv/m/mvi/4/pl/22/initcwndbps/15757500/vprv/1/playlist_type/DVR/mt/1695435925/fvip/3/keepalive/yes/fexp/24007246/beids/24350017/sparams/expire,ei,ip,id,itag,source,requiressl,ratebypass,otfp,pfa,sgovp,vprv,playlist_type/sig/AOq0QJ8wRAIgEKfJJ3yKU6-KdCQLaG8BJQsKWUYDN6aDbT0z1ylY8tYCIBQE_f_j4SSxVEaeS4A0WQ8U0axHle_m_luk00KJ1Vr9/lsparams/hls_chunk_host,mh,mm,mn,ms,mv,mvi,pl,initcwndbps/lsig/AG3C_xAwRQIhAL5qXfPQknhz8MGG1mh10SKvYGJHKka30kE9xi55F1mXAiAIKRHAyauBgR5Pfmi1XHgAYfB1B23d5HX4MEY1OJ8xrQ%3D%3D/playlist/index.m3u8/govp/sq%3D1/gosq/0/file/seg.ts' for reading
[tcp @ 0x563afe3915c0] Starting connection attempt to 211.114.67.143 port 443
[tcp @ 0x563afe3915c0] Successfully connected to 211.114.67.143 port 443
[hls @ 0x563afe078b40] HLS request for url 'https://rr4---sn-3u-bh2z6.googlevideo.com/videoplayback/id/cf1e16d15baeb3e2/itag/231/source/youtube/expire/1695457888/ei/AE4OZefVHL6u2roP-pye6Aw/ip/203.255.251.57/requiressl/yes/ratebypass/yes/otfp/1/pfa/1/sgovp/cnr%3D11%3Bitag%3D135%3Blmt%3D1603754478294370%3Botf%3D1%3Bsource%3Dyt_otf/hls_chunk_host/rr4---sn-3u-bh2z6.googlevideo.com/mh/Pw/mm/31,26/mn/sn-3u-bh2z6,sn-oguelnl7/ms/au,onr/mv/m/mvi/4/pl/22/initcwndbps/15757500/vprv/1/playlist_type/DVR/mt/1695435925/fvip/3/keepalive/yes/fexp/24007246/beids/24350017/sparams/expire,ei,ip,id,itag,source,requiressl,ratebypass,otfp,pfa,sgovp,vprv,playlist_type/sig/AOq0QJ8wRAIgEKfJJ3yKU6-KdCQLaG8BJQsKWUYDN6aDbT0z1ylY8tYCIBQE_f_j4SSxVEaeS4A0WQ8U0axHle_m_luk00KJ1Vr9/lsparams/hls_chunk_host,mh,mm,mn,ms,mv,mvi,pl,initcwndbps/lsig/AG3C_xAwRQIhAL5qXfPQknhz8MGG1mh10SKvYGJHKka30kE9xi55F1mXAiAIKRHAyauBgR5Pfmi1XHgAYfB1B23d5HX4MEY1OJ8xrQ%3D%3D/playlist/index.m3u8/govp/sq%3D2/gosq/1/file/seg.ts', offset 0, playlist 0
[hls @ 0x563afe078b40] Opening 'https://rr4---sn-3u-bh2z6.googlevideo.com/videoplayback/id/cf1e16d15baeb3e2/itag/231/source/youtube/expire/1695457888/ei/AE4OZefVHL6u2roP-pye6Aw/ip/203.255.251.57/requiressl/yes/ratebypass/yes/otfp/1/pfa/1/sgovp/cnr%3D11%3Bitag%3D135%3Blmt%3D1603754478294370%3Botf%3D1%3Bsource%3Dyt_otf/hls_chunk_host/rr4---sn-3u-bh2z6.googlevideo.com/mh/Pw/mm/31,26/mn/sn-3u-bh2z6,sn-oguelnl7/ms/au,onr/mv/m/mvi/4/pl/22/initcwndbps/15757500/vprv/1/playlist_type/DVR/mt/1695435925/fvip/3/keepalive/yes/fexp/24007246/beids/24350017/sparams/expire,ei,ip,id,itag,source,requiressl,ratebypass,otfp,pfa,sgovp,vprv,playlist_type/sig/AOq0QJ8wRAIgEKfJJ3yKU6-KdCQLaG8BJQsKWUYDN6aDbT0z1ylY8tYCIBQE_f_j4SSxVEaeS4A0WQ8U0axHle_m_luk00KJ1Vr9/lsparams/hls_chunk_host,mh,mm,mn,ms,mv,mvi,pl,initcwndbps/lsig/AG3C_xAwRQIhAL5qXfPQknhz8MGG1mh10SKvYGJHKka30kE9xi55F1mXAiAIKRHAyauBgR5Pfmi1XHgAYfB1B23d5HX4MEY1OJ8xrQ%3D%3D/playlist/index.m3u8/govp/sq%3D2/gosq/1/file/seg.ts' for reading
[tcp @ 0x563afe3ba840] Starting connection attempt to 211.114.67.143 port 443
[tcp @ 0x563afe3ba840] Successfully connected to 211.114.67.143 port 443
[h264 @ 0x563afe6c1300] Reinit context to 720x480, pix_fmt: yuv420p
[hls @ 0x563afe078b40] max_analyze_duration 5000000 reached at 5005000 microseconds st:0
[AVIOContext @ 0x563afe3ba680] Statistics: 886072 bytes read, 0 seeks
[AVIOContext @ 0x563afe6c3340] Statistics: 0 bytes read, 0 seeks
Input #0, hls, from 'https://manifest.googlevideo.com/api/manifest/hls_playlist/expire/1695457888/ei/AE4OZefVHL6u2roP-pye6Aw/ip/203.255.251.57/id/cf1e16d15baeb3e2/itag/231/source/youtube/requiressl/yes/ratebypass/yes/otfp/1/pfa/1/sgovp/cnr%3D11%3Bitag%3D135%3Blmt%3D1603754478294370%3Botf%3D1%3Bsource%3Dyt_otf/hls_chunk_host/rr4---sn-3u-bh2z6.googlevideo.com/mh/Pw/mm/31,26/mn/sn-3u-bh2z6,sn-oguelnl7/ms/au,onr/mv/m/mvi/4/pl/22/initcwndbps/15757500/vprv/1/playlist_type/DVR/dover/13/mt/1695435925/fvip/3/short_key/1/keepalive/yes/fexp/24007246/beids/24350017/sparams/expire,ei,ip,id,itag,source,requiressl,ratebypass,otfp,pfa,sgovp,vprv,playlist_type/sig/AOq0QJ8wRAIgEKfJJ3yKU6-KdCQLaG8BJQsKWUYDN6aDbT0z1ylY8tYCIBQE_f_j4SSxVEaeS4A0WQ8U0axHle_m_luk00KJ1Vr9/lsparams/hls_chunk_host,mh,mm,mn,ms,mv,mvi,pl,initcwndbps/lsig/AG3C_xAwRQIhAL5qXfPQknhz8MGG1mh10SKvYGJHKka30kE9xi55F1mXAiAIKRHAyauBgR5Pfmi1XHgAYfB1B23d5HX4MEY1OJ8xrQ%3D%3D/playlist/index.m3u8':
  Duration: 00:01:21.65, start: 0.000000, bitrate: 1 kb/s
  Program 0 
    Metadata:
      variant_bitrate : 0
  Stream #0:0: Video: h264 (Main), 1 reference frame ([27][0][0][0] / 0x001B), yuv420p(tv, bt709, left), 720x480 [SAR 1:1 DAR 3:2], 29.97 fps, 29.97 tbr, 90k tbn, 59.94 tbc
    Metadata:
      variant_bitrate : 0
[tcp @ 0x563afe9b5f80] Starting connection attempt to 211.114.67.143 port 443
[tcp @ 0x563afe9b5f80] Successfully connected to 211.114.67.143 port 443
[tcp @ 0x563afe955c40] Starting connection attempt to 211.114.67.143 port 443
[tcp @ 0x563afe955c40] Successfully connected to 211.114.67.143 port 443
Input #1, mov,mp4,m4a,3gp,3g2,mj2, from 'https://rr4---sn-3u-bh2z6.googlevideo.com/videoplayback?expire=1695457888&ei=AE4OZefVHL6u2roP-pye6Aw&ip=203.255.251.57&id=o-AKfc30sz_T297GkulxkElcizTHyjib-0wcwoiQCTMUo-&itag=140&source=youtube&requiressl=yes&mh=Pw&mm=31%2C26&mn=sn-3u-bh2z6%2Csn-oguelnl7&ms=au%2Conr&mv=m&mvi=4&pl=22&initcwndbps=15757500&vprv=1&svpuc=1&mime=audio%2Fmp4&gir=yes&clen=1323160&dur=81.711&lmt=1595878881531201&mt=1695435925&fvip=3&keepalive=yes&fexp=24007246&beids=24350017&c=IOS&txp=1211222&sparams=expire%2Cei%2Cip%2Cid%2Citag%2Csource%2Crequiressl%2Cvprv%2Csvpuc%2Cmime%2Cgir%2Cclen%2Cdur%2Clmt&sig=AOq0QJ8wRgIhAI02rdmcPqFifmlXrULwV4f92kRyCFcZXGjRJKtMfZXLAiEA6S0BELywz6QbKBnX25sZu8nTGAgVZzDNoau2sx1F1p8%3D&lsparams=mh%2Cmm%2Cmn%2Cms%2Cmv%2Cmvi%2Cpl%2Cinitcwndbps&lsig=AG3C_xAwRQIgAr_UnAYo4onHvYBYJbXXNzaFAe5yensBHLGycRzwwMoCIQD1_M33ZiiavrO0tOJsHhi8Wu1EDxuJgyabjtn2wprSdQ%3D%3D':
  Metadata:
    major_brand     : dash
    minor_version   : 0
    compatible_brands: iso6mp41
    creation_time   : 2020-07-27T19:40:40.000000Z
  Duration: 00:01:21.71, start: 0.000000, bitrate: 129 kb/s
  Stream #1:0(eng): Audio: aac (LC) (mp4a / 0x6134706D), 44100 Hz, stereo, fltp, 15 kb/s (default)
    Metadata:
      creation_time   : 2020-07-27T19:40:40.000000Z
      handler_name    : ISO Media file produced by Google Inc.
      vendor_id       : [0][0][0][0]
Output #0, mp4, to 'file:/home/face/Desktop/hb/cv_new/videos/zx4W0Vuus-I_0.mp4.part':
  Metadata:
    encoder         : Lavf58.76.100
  Stream #0:0: Video: h264 (Main), 1 reference frame (avc1 / 0x31637661), yuv420p(tv, bt709, left), 720x480 (0x0) [SAR 1:1 DAR 3:2], q=2-31, 29.97 fps, 29.97 tbr, 90k tbn, 90k tbc
    Metadata:
      variant_bitrate : 0
  Stream #0:1(eng): Audio: aac (LC) (mp4a / 0x6134706D), 44100 Hz, stereo, fltp, 15 kb/s (default)
    Metadata:
      creation_time   : 2020-07-27T19:40:40.000000Z
      handler_name    : ISO Media file produced by Google Inc.
      vendor_id       : [0][0][0][0]
Stream mapping:
  Stream #0:0 -> #0:0 (copy)
  Stream #1:0 -> #0:1 (copy)
Press [q] to stop, [?] for help
[hls @ 0x563afe078b40] HLS request for url 'https://rr4---sn-3u-bh2z6.googlevideo.com/videoplayback/id/cf1e16d15baeb3e2/itag/231/source/youtube/expire/1695457888/ei/AE4OZefVHL6u2roP-pye6Aw/ip/203.255.251.57/requiressl/yes/ratebypass/yes/otfp/1/pfa/1/sgovp/cnr%3D11%3Bitag%3D135%3Blmt%3D1603754478294370%3Botf%3D1%3Bsource%3Dyt_otf/hls_chunk_host/rr4---sn-3u-bh2z6.googlevideo.com/mh/Pw/mm/31,26/mn/sn-3u-bh2z6,sn-oguelnl7/ms/au,onr/mv/m/mvi/4/pl/22/initcwndbps/15757500/vprv/1/playlist_type/DVR/mt/1695435925/fvip/3/keepalive/yes/fexp/24007246/beids/24350017/sparams/expire,ei,ip,id,itag,source,requiressl,ratebypass,otfp,pfa,sgovp,vprv,playlist_type/sig/AOq0QJ8wRAIgEKfJJ3yKU6-KdCQLaG8BJQsKWUYDN6aDbT0z1ylY8tYCIBQE_f_j4SSxVEaeS4A0WQ8U0axHle_m_luk00KJ1Vr9/lsparams/hls_chunk_host,mh,mm,mn,ms,mv,mvi,pl,initcwndbps/lsig/AG3C_xAwRQIhAL5qXfPQknhz8MGG1mh10SKvYGJHKka30kE9xi55F1mXAiAIKRHAyauBgR5Pfmi1XHgAYfB1B23d5HX4MEY1OJ8xrQ%3D%3D/playlist/index.m3u8/govp/sq%3D3/gosq/2/file/seg.ts', offset 0, playlist 0
[hls @ 0x563afe078b40] Opening 'https://rr4---sn-3u-bh2z6.googlevideo.com/videoplayback/id/cf1e16d15baeb3e2/itag/231/source/youtube/expire/1695457888/ei/AE4OZefVHL6u2roP-pye6Aw/ip/203.255.251.57/requiressl/yes/ratebypass/yes/otfp/1/pfa/1/sgovp/cnr%3D11%3Bitag%3D135%3Blmt%3D1603754478294370%3Botf%3D1%3Bsource%3Dyt_otf/hls_chunk_host/rr4---sn-3u-bh2z6.googlevideo.com/mh/Pw/mm/31,26/mn/sn-3u-bh2z6,sn-oguelnl7/ms/au,onr/mv/m/mvi/4/pl/22/initcwndbps/15757500/vprv/1/playlist_type/DVR/mt/1695435925/fvip/3/keepalive/yes/fexp/24007246/beids/24350017/sparams/expire,ei,ip,id,itag,source,requiressl,ratebypass,otfp,pfa,sgovp,vprv,playlist_type/sig/AOq0QJ8wRAIgEKfJJ3yKU6-KdCQLaG8BJQsKWUYDN6aDbT0z1ylY8tYCIBQE_f_j4SSxVEaeS4A0WQ8U0axHle_m_luk00KJ1Vr9/lsparams/hls_chunk_host,mh,mm,mn,ms,mv,mvi,pl,initcwndbps/lsig/AG3C_xAwRQIhAL5qXfPQknhz8MGG1mh10SKvYGJHKka30kE9xi55F1mXAiAIKRHAyauBgR5Pfmi1XHgAYfB1B23d5HX4MEY1OJ8xrQ%3D%3D/playlist/index.m3u8/govp/sq%3D3/gosq/2/file/seg.ts' for reading
[tcp @ 0x7fe3cc005680] Starting connection attempt to 211.114.67.143 port 443
[tcp @ 0x7fe3cc005680] Successfully connected to 211.114.67.143 port 443
[hls @ 0x563afe078b40] HLS request for url 'https://rr4---sn-3u-bh2z6.googlevideo.com/videoplayback/id/cf1e16d15baeb3e2/itag/231/source/youtube/expire/1695457888/ei/AE4OZefVHL6u2roP-pye6Aw/ip/203.255.251.57/requiressl/yes/ratebypass/yes/otfp/1/pfa/1/sgovp/cnr%3D11%3Bitag%3D135%3Blmt%3D1603754478294370%3Botf%3D1%3Bsource%3Dyt_otf/hls_chunk_host/rr4---sn-3u-bh2z6.googlevideo.com/mh/Pw/mm/31,26/mn/sn-3u-bh2z6,sn-oguelnl7/ms/au,onr/mv/m/mvi/4/pl/22/initcwndbps/15757500/vprv/1/playlist_type/DVR/mt/1695435925/fvip/3/keepalive/yes/fexp/24007246/beids/24350017/sparams/expire,ei,ip,id,itag,source,requiressl,ratebypass,otfp,pfa,sgovp,vprv,playlist_type/sig/AOq0QJ8wRAIgEKfJJ3yKU6-KdCQLaG8BJQsKWUYDN6aDbT0z1ylY8tYCIBQE_f_j4SSxVEaeS4A0WQ8U0axHle_m_luk00KJ1Vr9/lsparams/hls_chunk_host,mh,mm,mn,ms,mv,mvi,pl,initcwndbps/lsig/AG3C_xAwRQIhAL5qXfPQknhz8MGG1mh10SKvYGJHKka30kE9xi55F1mXAiAIKRHAyauBgR5Pfmi1XHgAYfB1B23d5HX4MEY1OJ8xrQ%3D%3D/playlist/index.m3u8/govp/sq%3D4/gosq/3/file/seg.ts', offset 0, playlist 0
[hls @ 0x563afe078b40] Opening 'https://rr4---sn-3u-bh2z6.googlevideo.com/videoplayback/id/cf1e16d15baeb3e2/itag/231/source/youtube/expire/1695457888/ei/AE4OZefVHL6u2roP-pye6Aw/ip/203.255.251.57/requiressl/yes/ratebypass/yes/otfp/1/pfa/1/sgovp/cnr%3D11%3Bitag%3D135%3Blmt%3D1603754478294370%3Botf%3D1%3Bsource%3Dyt_otf/hls_chunk_host/rr4---sn-3u-bh2z6.googlevideo.com/mh/Pw/mm/31,26/mn/sn-3u-bh2z6,sn-oguelnl7/ms/au,onr/mv/m/mvi/4/pl/22/initcwndbps/15757500/vprv/1/playlist_type/DVR/mt/1695435925/fvip/3/keepalive/yes/fexp/24007246/beids/24350017/sparams/expire,ei,ip,id,itag,source,requiressl,ratebypass,otfp,pfa,sgovp,vprv,playlist_type/sig/AOq0QJ8wRAIgEKfJJ3yKU6-KdCQLaG8BJQsKWUYDN6aDbT0z1ylY8tYCIBQE_f_j4SSxVEaeS4A0WQ8U0axHle_m_luk00KJ1Vr9/lsparams/hls_chunk_host,mh,mm,mn,ms,mv,mvi,pl,initcwndbps/lsig/AG3C_xAwRQIhAL5qXfPQknhz8MGG1mh10SKvYGJHKka30kE9xi55F1mXAiAIKRHAyauBgR5Pfmi1XHgAYfB1B23d5HX4MEY1OJ8xrQ%3D%3D/playlist/index.m3u8/govp/sq%3D4/gosq/3/file/seg.ts' for reading
[tcp @ 0x7fe3cc013140] Starting connection attempt to 211.114.67.143 port 443
[tcp @ 0x7fe3cc013140] Successfully connected to 211.114.67.143 port 443
[hls @ 0x563afe078b40] HLS request for url 'https://rr4---sn-3u-bh2z6.googlevideo.com/videoplayback/id/cf1e16d15baeb3e2/itag/231/source/youtube/expire/1695457888/ei/AE4OZefVHL6u2roP-pye6Aw/ip/203.255.251.57/requiressl/yes/ratebypass/yes/otfp/1/pfa/1/sgovp/cnr%3D11%3Bitag%3D135%3Blmt%3D1603754478294370%3Botf%3D1%3Bsource%3Dyt_otf/hls_chunk_host/rr4---sn-3u-bh2z6.googlevideo.com/mh/Pw/mm/31,26/mn/sn-3u-bh2z6,sn-oguelnl7/ms/au,onr/mv/m/mvi/4/pl/22/initcwndbps/15757500/vprv/1/playlist_type/DVR/mt/1695435925/fvip/3/keepalive/yes/fexp/24007246/beids/24350017/sparams/expire,ei,ip,id,itag,source,requiressl,ratebypass,otfp,pfa,sgovp,vprv,playlist_type/sig/AOq0QJ8wRAIgEKfJJ3yKU6-KdCQLaG8BJQsKWUYDN6aDbT0z1ylY8tYCIBQE_f_j4SSxVEaeS4A0WQ8U0axHle_m_luk00KJ1Vr9/lsparams/hls_chunk_host,mh,mm,mn,ms,mv,mvi,pl,initcwndbps/lsig/AG3C_xAwRQIhAL5qXfPQknhz8MGG1mh10SKvYGJHKka30kE9xi55F1mXAiAIKRHAyauBgR5Pfmi1XHgAYfB1B23d5HX4MEY1OJ8xrQ%3D%3D/playlist/index.m3u8/govp/sq%3D5/gosq/4/file/seg.ts', offset 0, playlist 0
[https @ 0x7fe3cc0019c0] Opening 'https://rr4---sn-3u-bh2z6.googlevideo.com/videoplayback/id/cf1e16d15baeb3e2/itag/231/source/youtube/expire/1695457888/ei/AE4OZefVHL6u2roP-pye6Aw/ip/203.255.251.57/requiressl/yes/ratebypass/yes/otfp/1/pfa/1/sgovp/cnr%3D11%3Bitag%3D135%3Blmt%3D1603754478294370%3Botf%3D1%3Bsource%3Dyt_otf/hls_chunk_host/rr4---sn-3u-bh2z6.googlevideo.com/mh/Pw/mm/31,26/mn/sn-3u-bh2z6,sn-oguelnl7/ms/au,onr/mv/m/mvi/4/pl/22/initcwndbps/15757500/vprv/1/playlist_type/DVR/mt/1695435925/fvip/3/keepalive/yes/fexp/24007246/beids/24350017/sparams/expire,ei,ip,id,itag,source,requiressl,ratebypass,otfp,pfa,sgovp,vprv,playlist_type/sig/AOq0QJ8wRAIgEKfJJ3yKU6-KdCQLaG8BJQsKWUYDN6aDbT0z1ylY8tYCIBQE_f_j4SSxVEaeS4A0WQ8U0axHle_m_luk00KJ1Vr9/lsparams/hls_chunk_host,mh,mm,mn,ms,mv,mvi,pl,initcwndbps/lsig/AG3C_xAwRQIhAL5qXfPQknhz8MGG1mh10SKvYGJHKka30kE9xi55F1mXAiAIKRHAyauBgR5Pfmi1XHgAYfB1B23d5HX4MEY1OJ8xrQ%3D%3D/playlist/index.m3u8/govp/sq%3D5/gosq/4/file/seg.ts' for reading
frame=    1 fps=0.0 q=-1.0 size=       0kB time=00:00:00.96 bitrate=   0.4kbits/s speed=1.14e+04x    [hls @ 0x563afe078b40] HLS request for url 'https://rr4---sn-3u-bh2z6.googlevideo.com/videoplayback/id/cf1e16d15baeb3e2/itag/231/source/youtube/expire/1695457888/ei/AE4OZefVHL6u2roP-pye6Aw/ip/203.255.251.57/requiressl/yes/ratebypass/yes/otfp/1/pfa/1/sgovp/cnr%3D11%3Bitag%3D135%3Blmt%3D1603754478294370%3Botf%3D1%3Bsource%3Dyt_otf/hls_chunk_host/rr4---sn-3u-bh2z6.googlevideo.com/mh/Pw/mm/31,26/mn/sn-3u-bh2z6,sn-oguelnl7/ms/au,onr/mv/m/mvi/4/pl/22/initcwndbps/15757500/vprv/1/playlist_type/DVR/mt/1695435925/fvip/3/keepalive/yes/fexp/24007246/beids/24350017/sparams/expire,ei,ip,id,itag,source,requiressl,ratebypass,otfp,pfa,sgovp,vprv,playlist_type/sig/AOq0QJ8wRAIgEKfJJ3yKU6-KdCQLaG8BJQsKWUYDN6aDbT0z1ylY8tYCIBQE_f_j4SSxVEaeS4A0WQ8U0axHle_m_luk00KJ1Vr9/lsparams/hls_chunk_host,mh,mm,mn,ms,mv,mvi,pl,initcwndbps/lsig/AG3C_xAwRQIhAL5qXfPQknhz8MGG1mh10SKvYGJHKka30kE9xi55F1mXAiAIKRHAyauBgR5Pfmi1XHgAYfB1B23d5HX4MEY1OJ8xrQ%3D%3D/playlist/index.m3u8/govp/sq%3D6/gosq/5/file/seg.ts', offset 0, playlist 0
[https @ 0x7fe3cc0100c0] Opening 'https://rr4---sn-3u-bh2z6.googlevideo.com/videoplayback/id/cf1e16d15baeb3e2/itag/231/source/youtube/expire/1695457888/ei/AE4OZefVHL6u2roP-pye6Aw/ip/203.255.251.57/requiressl/yes/ratebypass/yes/otfp/1/pfa/1/sgovp/cnr%3D11%3Bitag%3D135%3Blmt%3D1603754478294370%3Botf%3D1%3Bsource%3Dyt_otf/hls_chunk_host/rr4---sn-3u-bh2z6.googlevideo.com/mh/Pw/mm/31,26/mn/sn-3u-bh2z6,sn-oguelnl7/ms/au,onr/mv/m/mvi/4/pl/22/initcwndbps/15757500/vprv/1/playlist_type/DVR/mt/1695435925/fvip/3/keepalive/yes/fexp/24007246/beids/24350017/sparams/expire,ei,ip,id,itag,source,requiressl,ratebypass,otfp,pfa,sgovp,vprv,playlist_type/sig/AOq0QJ8wRAIgEKfJJ3yKU6-KdCQLaG8BJQsKWUYDN6aDbT0z1ylY8tYCIBQE_f_j4SSxVEaeS4A0WQ8U0axHle_m_luk00KJ1Vr9/lsparams/hls_chunk_host,mh,mm,mn,ms,mv,mvi,pl,initcwndbps/lsig/AG3C_xAwRQIhAL5qXfPQknhz8MGG1mh10SKvYGJHKka30kE9xi55F1mXAiAIKRHAyauBgR5Pfmi1XHgAYfB1B23d5HX4MEY1OJ8xrQ%3D%3D/playlist/index.m3u8/govp/sq%3D6/gosq/5/file/seg.ts' for reading
frame=  160 fps=0.0 q=-1.0 size=     512kB time=00:00:06.27 bitrate= 668.9kbits/s speed=10.5x    [hls @ 0x563afe078b40] HLS request for url 'https://rr4---sn-3u-bh2z6.googlevideo.com/videoplayback/id/cf1e16d15baeb3e2/itag/231/source/youtube/expire/1695457888/ei/AE4OZefVHL6u2roP-pye6Aw/ip/203.255.251.57/requiressl/yes/ratebypass/yes/otfp/1/pfa/1/sgovp/cnr%3D11%3Bitag%3D135%3Blmt%3D1603754478294370%3Botf%3D1%3Bsource%3Dyt_otf/hls_chunk_host/rr4---sn-3u-bh2z6.googlevideo.com/mh/Pw/mm/31,26/mn/sn-3u-bh2z6,sn-oguelnl7/ms/au,onr/mv/m/mvi/4/pl/22/initcwndbps/15757500/vprv/1/playlist_type/DVR/mt/1695435925/fvip/3/keepalive/yes/fexp/24007246/beids/24350017/sparams/expire,ei,ip,id,itag,source,requiressl,ratebypass,otfp,pfa,sgovp,vprv,playlist_type/sig/AOq0QJ8wRAIgEKfJJ3yKU6-KdCQLaG8BJQsKWUYDN6aDbT0z1ylY8tYCIBQE_f_j4SSxVEaeS4A0WQ8U0axHle_m_luk00KJ1Vr9/lsparams/hls_chunk_host,mh,mm,mn,ms,mv,mvi,pl,initcwndbps/lsig/AG3C_xAwRQIhAL5qXfPQknhz8MGG1mh10SKvYGJHKka30kE9xi55F1mXAiAIKRHAyauBgR5Pfmi1XHgAYfB1B23d5HX4MEY1OJ8xrQ%3D%3D/playlist/index.m3u8/govp/sq%3D7/gosq/6/file/seg.ts', offset 0, playlist 0
[https @ 0x7fe3cc0019c0] Opening 'https://rr4---sn-3u-bh2z6.googlevideo.com/videoplayback/id/cf1e16d15baeb3e2/itag/231/source/youtube/expire/1695457888/ei/AE4OZefVHL6u2roP-pye6Aw/ip/203.255.251.57/requiressl/yes/ratebypass/yes/otfp/1/pfa/1/sgovp/cnr%3D11%3Bitag%3D135%3Blmt%3D1603754478294370%3Botf%3D1%3Bsource%3Dyt_otf/hls_chunk_host/rr4---sn-3u-bh2z6.googlevideo.com/mh/Pw/mm/31,26/mn/sn-3u-bh2z6,sn-oguelnl7/ms/au,onr/mv/m/mvi/4/pl/22/initcwndbps/15757500/vprv/1/playlist_type/DVR/mt/1695435925/fvip/3/keepalive/yes/fexp/24007246/beids/24350017/sparams/expire,ei,ip,id,itag,source,requiressl,ratebypass,otfp,pfa,sgovp,vprv,playlist_type/sig/AOq0QJ8wRAIgEKfJJ3yKU6-KdCQLaG8BJQsKWUYDN6aDbT0z1ylY8tYCIBQE_f_j4SSxVEaeS4A0WQ8U0axHle_m_luk00KJ1Vr9/lsparams/hls_chunk_host,mh,mm,mn,ms,mv,mvi,pl,initcwndbps/lsig/AG3C_xAwRQIhAL5qXfPQknhz8MGG1mh10SKvYGJHKka30kE9xi55F1mXAiAIKRHAyauBgR5Pfmi1XHgAYfB1B23d5HX4MEY1OJ8xrQ%3D%3D/playlist/index.m3u8/govp/sq%3D7/gosq/6/file/seg.ts' for reading
[hls @ 0x563afe078b40] HLS request for url 'https://rr4---sn-3u-bh2z6.googlevideo.com/videoplayback/id/cf1e16d15baeb3e2/itag/231/source/youtube/expire/1695457888/ei/AE4OZefVHL6u2roP-pye6Aw/ip/203.255.251.57/requiressl/yes/ratebypass/yes/otfp/1/pfa/1/sgovp/cnr%3D11%3Bitag%3D135%3Blmt%3D1603754478294370%3Botf%3D1%3Bsource%3Dyt_otf/hls_chunk_host/rr4---sn-3u-bh2z6.googlevideo.com/mh/Pw/mm/31,26/mn/sn-3u-bh2z6,sn-oguelnl7/ms/au,onr/mv/m/mvi/4/pl/22/initcwndbps/15757500/vprv/1/playlist_type/DVR/mt/1695435925/fvip/3/keepalive/yes/fexp/24007246/beids/24350017/sparams/expire,ei,ip,id,itag,source,requiressl,ratebypass,otfp,pfa,sgovp,vprv,playlist_type/sig/AOq0QJ8wRAIgEKfJJ3yKU6-KdCQLaG8BJQsKWUYDN6aDbT0z1ylY8tYCIBQE_f_j4SSxVEaeS4A0WQ8U0axHle_m_luk00KJ1Vr9/lsparams/hls_chunk_host,mh,mm,mn,ms,mv,mvi,pl,initcwndbps/lsig/AG3C_xAwRQIhAL5qXfPQknhz8MGG1mh10SKvYGJHKka30kE9xi55F1mXAiAIKRHAyauBgR5Pfmi1XHgAYfB1B23d5HX4MEY1OJ8xrQ%3D%3D/playlist/index.m3u8/govp/sq%3D8/gosq/7/file/seg.ts', offset 0, playlist 0
[https @ 0x7fe3cc0100c0] Opening 'https://rr4---sn-3u-bh2z6.googlevideo.com/videoplayback/id/cf1e16d15baeb3e2/itag/231/source/youtube/expire/1695457888/ei/AE4OZefVHL6u2roP-pye6Aw/ip/203.255.251.57/requiressl/yes/ratebypass/yes/otfp/1/pfa/1/sgovp/cnr%3D11%3Bitag%3D135%3Blmt%3D1603754478294370%3Botf%3D1%3Bsource%3Dyt_otf/hls_chunk_host/rr4---sn-3u-bh2z6.googlevideo.com/mh/Pw/mm/31,26/mn/sn-3u-bh2z6,sn-oguelnl7/ms/au,onr/mv/m/mvi/4/pl/22/initcwndbps/15757500/vprv/1/playlist_type/DVR/mt/1695435925/fvip/3/keepalive/yes/fexp/24007246/beids/24350017/sparams/expire,ei,ip,id,itag,source,requiressl,ratebypass,otfp,pfa,sgovp,vprv,playlist_type/sig/AOq0QJ8wRAIgEKfJJ3yKU6-KdCQLaG8BJQsKWUYDN6aDbT0z1ylY8tYCIBQE_f_j4SSxVEaeS4A0WQ8U0axHle_m_luk00KJ1Vr9/lsparams/hls_chunk_host,mh,mm,mn,ms,mv,mvi,pl,initcwndbps/lsig/AG3C_xAwRQIhAL5qXfPQknhz8MGG1mh10SKvYGJHKka30kE9xi55F1mXAiAIKRHAyauBgR5Pfmi1XHgAYfB1B23d5HX4MEY1OJ8xrQ%3D%3D/playlist/index.m3u8/govp/sq%3D8/gosq/7/file/seg.ts' for reading
[hls @ 0x563afe078b40] HLS request for url 'https://rr4---sn-3u-bh2z6.googlevideo.com/videoplayback/id/cf1e16d15baeb3e2/itag/231/source/youtube/expire/1695457888/ei/AE4OZefVHL6u2roP-pye6Aw/ip/203.255.251.57/requiressl/yes/ratebypass/yes/otfp/1/pfa/1/sgovp/cnr%3D11%3Bitag%3D135%3Blmt%3D1603754478294370%3Botf%3D1%3Bsource%3Dyt_otf/hls_chunk_host/rr4---sn-3u-bh2z6.googlevideo.com/mh/Pw/mm/31,26/mn/sn-3u-bh2z6,sn-oguelnl7/ms/au,onr/mv/m/mvi/4/pl/22/initcwndbps/15757500/vprv/1/playlist_type/DVR/mt/1695435925/fvip/3/keepalive/yes/fexp/24007246/beids/24350017/sparams/expire,ei,ip,id,itag,source,requiressl,ratebypass,otfp,pfa,sgovp,vprv,playlist_type/sig/AOq0QJ8wRAIgEKfJJ3yKU6-KdCQLaG8BJQsKWUYDN6aDbT0z1ylY8tYCIBQE_f_j4SSxVEaeS4A0WQ8U0axHle_m_luk00KJ1Vr9/lsparams/hls_chunk_host,mh,mm,mn,ms,mv,mvi,pl,initcwndbps/lsig/AG3C_xAwRQIhAL5qXfPQknhz8MGG1mh10SKvYGJHKka30kE9xi55F1mXAiAIKRHAyauBgR5Pfmi1XHgAYfB1B23d5HX4MEY1OJ8xrQ%3D%3D/playlist/index.m3u8/govp/sq%3D9/gosq/8/file/seg.ts', offset 0, playlist 0
[https @ 0x7fe3cc0019c0] Opening 'https://rr4---sn-3u-bh2z6.googlevideo.com/videoplayback/id/cf1e16d15baeb3e2/itag/231/source/youtube/expire/1695457888/ei/AE4OZefVHL6u2roP-pye6Aw/ip/203.255.251.57/requiressl/yes/ratebypass/yes/otfp/1/pfa/1/sgovp/cnr%3D11%3Bitag%3D135%3Blmt%3D1603754478294370%3Botf%3D1%3Bsource%3Dyt_otf/hls_chunk_host/rr4---sn-3u-bh2z6.googlevideo.com/mh/Pw/mm/31,26/mn/sn-3u-bh2z6,sn-oguelnl7/ms/au,onr/mv/m/mvi/4/pl/22/initcwndbps/15757500/vprv/1/playlist_type/DVR/mt/1695435925/fvip/3/keepalive/yes/fexp/24007246/beids/24350017/sparams/expire,ei,ip,id,itag,source,requiressl,ratebypass,otfp,pfa,sgovp,vprv,playlist_type/sig/AOq0QJ8wRAIgEKfJJ3yKU6-KdCQLaG8BJQsKWUYDN6aDbT0z1ylY8tYCIBQE_f_j4SSxVEaeS4A0WQ8U0axHle_m_luk00KJ1Vr9/lsparams/hls_chunk_host,mh,mm,mn,ms,mv,mvi,pl,initcwndbps/lsig/AG3C_xAwRQIhAL5qXfPQknhz8MGG1mh10SKvYGJHKka30kE9xi55F1mXAiAIKRHAyauBgR5Pfmi1XHgAYfB1B23d5HX4MEY1OJ8xrQ%3D%3D/playlist/index.m3u8/govp/sq%3D9/gosq/8/file/seg.ts' for reading
No more output streams to write to, finishing.
frame=  669 fps=0.0 q=-1.0 Lsize=    3057kB time=00:00:23.26 bitrate=1076.5kbits/s speed=  25x    
video:2672kB audio:364kB subtitle:0kB other streams:0kB global headers:0kB muxing overhead: 0.684297%
Input file #0 (https://manifest.googlevideo.com/api/manifest/hls_playlist/expire/1695457888/ei/AE4OZefVHL6u2roP-pye6Aw/ip/203.255.251.57/id/cf1e16d15baeb3e2/itag/231/source/youtube/requiressl/yes/ratebypass/yes/otfp/1/pfa/1/sgovp/cnr%3D11%3Bitag%3D135%3Blmt%3D1603754478294370%3Botf%3D1%3Bsource%3Dyt_otf/hls_chunk_host/rr4---sn-3u-bh2z6.googlevideo.com/mh/Pw/mm/31,26/mn/sn-3u-bh2z6,sn-oguelnl7/ms/au,onr/mv/m/mvi/4/pl/22/initcwndbps/15757500/vprv/1/playlist_type/DVR/dover/13/mt/1695435925/fvip/3/short_key/1/keepalive/yes/fexp/24007246/beids/24350017/sparams/expire,ei,ip,id,itag,source,requiressl,ratebypass,otfp,pfa,sgovp,vprv,playlist_type/sig/AOq0QJ8wRAIgEKfJJ3yKU6-KdCQLaG8BJQsKWUYDN6aDbT0z1ylY8tYCIBQE_f_j4SSxVEaeS4A0WQ8U0axHle_m_luk00KJ1Vr9/lsparams/hls_chunk_host,mh,mm,mn,ms,mv,mvi,pl,initcwndbps/lsig/AG3C_xAwRQIhAL5qXfPQknhz8MGG1mh10SKvYGJHKka30kE9xi55F1mXAiAIKRHAyauBgR5Pfmi1XHgAYfB1B23d5HX4MEY1OJ8xrQ%3D%3D/playlist/index.m3u8):
  Input stream #0:0 (video): 670 packets read (2741832 bytes); 
  Total: 670 packets (2741832 bytes) demuxed
Input file #1 (https://rr4---sn-3u-bh2z6.googlevideo.com/videoplayback?expire=1695457888&ei=AE4OZefVHL6u2roP-pye6Aw&ip=203.255.251.57&id=o-AKfc30sz_T297GkulxkElcizTHyjib-0wcwoiQCTMUo-&itag=140&source=youtube&requiressl=yes&mh=Pw&mm=31%2C26&mn=sn-3u-bh2z6%2Csn-oguelnl7&ms=au%2Conr&mv=m&mvi=4&pl=22&initcwndbps=15757500&vprv=1&svpuc=1&mime=audio%2Fmp4&gir=yes&clen=1323160&dur=81.711&lmt=1595878881531201&mt=1695435925&fvip=3&keepalive=yes&fexp=24007246&beids=24350017&c=IOS&txp=1211222&sparams=expire%2Cei%2Cip%2Cid%2Citag%2Csource%2Crequiressl%2Cvprv%2Csvpuc%2Cmime%2Cgir%2Cclen%2Cdur%2Clmt&sig=AOq0QJ8wRgIhAI02rdmcPqFifmlXrULwV4f92kRyCFcZXGjRJKtMfZXLAiEA6S0BELywz6QbKBnX25sZu8nTGAgVZzDNoau2sx1F1p8%3D&lsparams=mh%2Cmm%2Cmn%2Cms%2Cmv%2Cmvi%2Cpl%2Cinitcwndbps&lsig=AG3C_xAwRQIgAr_UnAYo4onHvYBYJbXXNzaFAe5yensBHLGycRzwwMoCIQD1_M33ZiiavrO0tOJsHhi8Wu1EDxuJgyabjtn2wprSdQ%3D%3D):
  Input stream #1:0 (audio): 1004 packets read (372893 bytes); 
  Total: 1004 packets (372893 bytes) demuxed
Output file #0 (file:/home/face/Desktop/hb/cv_new/videos/zx4W0Vuus-I_0.mp4.part):
  Output stream #0:0 (video): 669 packets muxed (2736489 bytes); 
  Output stream #0:1 (audio): 1003 packets muxed (372539 bytes); 
  Total: 1672 packets (3109028 bytes) muxed
[AVIOContext @ 0x563afe3925c0] Statistics: 2 seeks, 15 writeouts
[AVIOContext @ 0x7fe3cc33d2c0] Statistics: 1500296 bytes read, 0 seeks
[AVIOContext @ 0x7fe3cc015880] Statistics: 2073640 bytes read, 0 seeks
[AVIOContext @ 0x563afe392240] Statistics: 15302 bytes read, 0 seeks
[AVIOContext @ 0x563afe64c8c0] Statistics: 491520 bytes read, 1 seeks
[download] 100% of    2.99MiB in 00:00:02 at 1.05MiB/s
